<?xml version="1.0" encoding="UTF-8"?>
<svg width="10px" height="10px" viewBox="0 0 10 10" version="1.1" xmlns="http://www.w3.org/2000/svg" xmlns:xlink="http://www.w3.org/1999/xlink">
    <title>Artboard</title>
    <g id="Artboard" stroke="none" stroke-width="1" fill="none" fill-rule="evenodd">
        <rect id="Rectangle" fill="#FFFFFF" x="1" y="8" width="1" height="1"></rect>
        <rect id="Rectangle" fill="#FFFFFF" x="2" y="7" width="1" height="1"></rect>
        <rect id="Rectangle" fill="#FFFFFF" x="3" y="6" width="1" height="1"></rect>
        <rect id="Rectangle" fill="#FFFFFF" x="4" y="5" width="1" height="1"></rect>
        <rect id="Rectangle" fill="#FFFFFF" x="5" y="4" width="1" height="1"></rect>
        <rect id="Rectangle" fill="#FFFFFF" x="6" y="3" width="1" height="1"></rect>
        <rect id="Rectangle" fill="#FFFFFF" x="7" y="2" width="1" height="1"></rect>
        <rect id="Rectangle" fill="#FFFFFF" x="8" y="1" width="1" height="1"></rect>
        <rect id="Rectangle" fill="#FFFFFF" x="8" y="8" width="1" height="1"></rect>
        <rect id="Rectangle" fill="#FFFFFF" x="4" y="4" width="1" height="1"></rect>
        <rect id="Rectangle" fill="#FFFFFF" x="5" y="5" width="1" height="1"></rect>
        <rect id="Rectangle" fill="#FFFFFF" x="6" y="6" width="1" height="1"></rect>
        <rect id="Rectangle" fill="#FFFFFF" x="7" y="7" width="1" height="1"></rect>
        <rect id="Rectangle" fill="#FFFFFF" x="3" y="3" width="1" height="1"></rect>
        <rect id="Rectangle" fill="#FFFFFF" x="2" y="2" width="1" height="1"></rect>
        <rect id="Rectangle" fill="#FFFFFF" x="1" y="1" width="1" height="1"></rect>
    </g>
</svg>