<?xml version="1.0" standalone="no"?>
<!DOCTYPE svg PUBLIC "-//W3C//DTD SVG 20010904//EN"
 "http://www.w3.org/TR/2001/REC-SVG-20010904/DTD/svg10.dtd">
<svg version="1.0" xmlns="http://www.w3.org/2000/svg"
 width="512.000000pt" height="512.000000pt" viewBox="0 0 512.000000 512.000000"
 preserveAspectRatio="xMidYMid meet">
<metadata>
Created by potrace 1.14, written by Peter Selinger 2001-2017
</metadata>
<g transform="translate(0.000000,512.000000) scale(0.100000,-0.100000)"
fill="#000000" stroke="none">
<path d="M1620 4985 l0 -135 -270 0 -270 0 0 -135 0 -135 -135 0 -135 0 0
-135 0 -135 -135 0 -135 0 0 -135 0 -135 -135 0 -135 0 0 -265 0 -265 -135 0
-135 0 0 -945 0 -945 135 0 135 0 0 -270 0 -270 135 0 135 0 0 -135 0 -135
135 0 135 0 0 -135 0 -135 135 0 135 0 0 -135 0 -135 270 0 270 0 0 -135 0
-135 940 0 940 0 0 135 0 135 270 0 270 0 0 135 0 135 135 0 135 0 0 135 0
135 135 0 135 0 0 135 0 135 135 0 135 0 0 270 0 270 135 0 135 0 0 945 0 945
-135 0 -135 0 0 265 0 265 -135 0 -135 0 0 135 0 135 -135 0 -135 0 0 135 0
135 -135 0 -135 0 0 135 0 135 -270 0 -270 0 0 135 0 135 -940 0 -940 0 0
-135z m1880 -270 l0 -135 270 0 270 0 0 -135 0 -135 135 0 135 0 0 -135 0
-135 135 0 135 0 0 -270 0 -270 -135 0 -135 0 0 -135 0 -135 -135 0 -135 0 0
-135 0 -135 -135 0 -135 0 0 -535 0 -535 135 0 135 0 0 135 0 135 135 0 135 0
0 135 0 135 135 0 135 0 0 135 0 135 135 0 135 0 0 -540 0 -540 -135 0 -135 0
0 -135 0 -135 -135 0 -135 0 0 -135 0 -135 -135 0 -135 0 0 -135 0 -135 -135
0 -135 0 0 -135 0 -135 -135 0 -135 0 0 -135 0 -135 -535 0 -535 0 0 135 0
135 135 0 135 0 0 135 0 135 130 0 130 0 0 135 0 135 -535 0 -535 0 0 -135 0
-135 -135 0 -135 0 0 -135 0 -135 -270 0 -270 0 0 135 0 135 -135 0 -135 0 0
135 0 135 -135 0 -135 0 0 270 0 270 -135 0 -135 0 0 940 0 940 135 0 135 0 0
270 0 270 135 0 135 0 0 135 0 135 135 0 135 0 0 135 0 135 270 0 270 0 0 135
0 135 940 0 940 0 0 -135z"/>
<path d="M2160 3635 l0 -135 -135 0 -135 0 0 -135 0 -135 -135 0 -135 0 0
-130 0 -130 135 0 135 0 0 130 0 130 135 0 135 0 0 135 0 135 400 0 400 0 0
-135 0 -135 135 0 135 0 0 -130 0 -130 135 0 135 0 0 130 0 130 -135 0 -135 0
0 135 0 135 -135 0 -135 0 0 135 0 135 -400 0 -400 0 0 -135z"/>
<path d="M1350 2425 l0 -535 135 0 135 0 0 -135 0 -135 135 0 135 0 0 -135 0
-135 135 0 135 0 0 135 0 135 -135 0 -135 0 0 135 0 135 -135 0 -135 0 0 535
0 535 -135 0 -135 0 0 -535z"/>
<path d="M3230 2295 l0 -135 -135 0 -135 0 0 -135 0 -135 -130 0 -130 0 0
-135 0 -135 -135 0 -135 0 0 -135 0 -135 135 0 135 0 0 135 0 135 130 0 130 0
0 135 0 135 135 0 135 0 0 135 0 135 135 0 135 0 0 135 0 135 -135 0 -135 0 0
-135z"/>
<path d="M3500 1755 l0 -135 -135 0 -135 0 0 -135 0 -135 -135 0 -135 0 0
-135 0 -135 135 0 135 0 0 135 0 135 135 0 135 0 0 135 0 135 135 0 135 0 0
135 0 135 -135 0 -135 0 0 -135z"/>
</g>
</svg>
